<mxfile host="app.diagrams.net" modified="2020-04-02T12:42:42.877Z" agent="5.0 (Windows)" etag="P_gieSCxABFSc8GXoPWB" version="12.9.6" type="github">
  <diagram id="t7Irym4Ax3fzfUFPaMWq" name="Page-1">
    <mxGraphModel dx="1422" dy="779" grid="1" gridSize="10" guides="1" tooltips="1" connect="1" arrows="1" fold="1" page="1" pageScale="1" pageWidth="1100" pageHeight="850" math="0" shadow="0">
      <root>
        <mxCell id="0" />
        <mxCell id="1" parent="0" />
        <mxCell id="2Wf-NHqIdN6HAQU8RHkt-36" value="" style="rounded=1;whiteSpace=wrap;html=1;absoluteArcSize=1;arcSize=14;strokeWidth=2;shadow=1;align=left;fillColor=#d5e8d4;strokeColor=#82b366;" parent="1" vertex="1">
          <mxGeometry x="40" y="465" width="655" height="220" as="geometry" />
        </mxCell>
        <mxCell id="2Wf-NHqIdN6HAQU8RHkt-53" value="" style="edgeStyle=orthogonalEdgeStyle;rounded=0;orthogonalLoop=1;jettySize=auto;html=1;entryX=0;entryY=0.5;entryDx=0;entryDy=0;endArrow=none;endFill=0;exitX=1.002;exitY=0.681;exitDx=0;exitDy=0;exitPerimeter=0;" parent="1" source="2Wf-NHqIdN6HAQU8RHkt-41" target="2Wf-NHqIdN6HAQU8RHkt-42" edge="1">
          <mxGeometry relative="1" as="geometry">
            <mxPoint x="279.0000000000001" y="613.5" as="sourcePoint" />
            <mxPoint x="350.0000000000001" y="520.5000000000001" as="targetPoint" />
            <Array as="points">
              <mxPoint x="340" y="628" />
              <mxPoint x="340" y="509" />
              <mxPoint x="355" y="509" />
            </Array>
          </mxGeometry>
        </mxCell>
        <mxCell id="2Wf-NHqIdN6HAQU8RHkt-41" value="" style="strokeWidth=2;html=1;shape=mxgraph.flowchart.multi-document;whiteSpace=wrap;fillColor=#f5f5f5;strokeColor=#666666;fontColor=#333333;" parent="1" vertex="1">
          <mxGeometry x="99" y="573.5" width="180" height="80" as="geometry" />
        </mxCell>
        <mxCell id="2Wf-NHqIdN6HAQU8RHkt-21" value="" style="rounded=1;whiteSpace=wrap;html=1;absoluteArcSize=1;arcSize=14;strokeWidth=2;shadow=1;align=left;fillColor=#ffe6cc;strokeColor=#d79b00;" parent="1" vertex="1">
          <mxGeometry x="40" y="183" width="610" height="130" as="geometry" />
        </mxCell>
        <mxCell id="2Wf-NHqIdN6HAQU8RHkt-18" value="" style="rounded=1;whiteSpace=wrap;html=1;absoluteArcSize=1;arcSize=14;strokeWidth=2;shadow=1;align=left;fillColor=#ffe6cc;strokeColor=#d79b00;" parent="1" vertex="1">
          <mxGeometry x="40" y="35" width="610" height="126" as="geometry" />
        </mxCell>
        <mxCell id="gM90bsnOBTq26xYd50Tb-45" style="edgeStyle=orthogonalEdgeStyle;rounded=0;orthogonalLoop=1;jettySize=auto;html=1;exitX=0.5;exitY=1;exitDx=0;exitDy=0;entryX=0.5;entryY=0;entryDx=0;entryDy=0;" parent="1" source="2Wf-NHqIdN6HAQU8RHkt-15" target="gM90bsnOBTq26xYd50Tb-41" edge="1">
          <mxGeometry relative="1" as="geometry">
            <Array as="points">
              <mxPoint x="500" y="170" />
            </Array>
          </mxGeometry>
        </mxCell>
        <mxCell id="2Wf-NHqIdN6HAQU8RHkt-15" value="" style="rounded=1;whiteSpace=wrap;html=1;absoluteArcSize=1;arcSize=14;strokeWidth=2;align=left;shadow=1;glass=1;strokeColor=none;" parent="1" vertex="1">
          <mxGeometry x="370" y="72" width="260" height="70" as="geometry" />
        </mxCell>
        <mxCell id="2Wf-NHqIdN6HAQU8RHkt-13" value="" style="rounded=1;whiteSpace=wrap;html=1;absoluteArcSize=1;arcSize=14;strokeWidth=2;align=left;shadow=1;strokeColor=none;" parent="1" vertex="1">
          <mxGeometry x="367" y="190" width="263" height="49" as="geometry" />
        </mxCell>
        <mxCell id="gM90bsnOBTq26xYd50Tb-40" style="edgeStyle=orthogonalEdgeStyle;rounded=0;orthogonalLoop=1;jettySize=auto;html=1;exitX=0.5;exitY=0.88;exitDx=0;exitDy=0;exitPerimeter=0;" parent="1" source="2Wf-NHqIdN6HAQU8RHkt-7" target="2Wf-NHqIdN6HAQU8RHkt-16" edge="1">
          <mxGeometry relative="1" as="geometry">
            <Array as="points">
              <mxPoint x="145" y="323" />
            </Array>
          </mxGeometry>
        </mxCell>
        <mxCell id="2Wf-NHqIdN6HAQU8RHkt-7" value="" style="strokeWidth=2;html=1;shape=mxgraph.flowchart.multi-document;whiteSpace=wrap;fillColor=#f5f5f5;strokeColor=#666666;fontColor=#333333;" parent="1" vertex="1">
          <mxGeometry x="55" y="225" width="180" height="80" as="geometry" />
        </mxCell>
        <mxCell id="2Wf-NHqIdN6HAQU8RHkt-3" value="" style="strokeWidth=2;html=1;shape=mxgraph.flowchart.multi-document;whiteSpace=wrap;fillColor=#f5f5f5;strokeColor=#666666;fontColor=#333333;" parent="1" vertex="1">
          <mxGeometry x="55" y="75" width="180" height="80" as="geometry" />
        </mxCell>
        <mxCell id="2Wf-NHqIdN6HAQU8RHkt-5" value="&lt;b&gt;Clinical PK data of individuals&lt;/b&gt;" style="text;html=1;strokeColor=none;fillColor=none;align=left;verticalAlign=middle;whiteSpace=wrap;rounded=0;" parent="1" vertex="1">
          <mxGeometry x="60" y="255" width="130" height="30" as="geometry" />
        </mxCell>
        <mxCell id="gM90bsnOBTq26xYd50Tb-43" style="edgeStyle=orthogonalEdgeStyle;rounded=0;orthogonalLoop=1;jettySize=auto;html=1;exitX=0.25;exitY=1;exitDx=0;exitDy=0;entryX=0.5;entryY=1;entryDx=0;entryDy=0;" parent="1" source="2Wf-NHqIdN6HAQU8RHkt-6" target="gM90bsnOBTq26xYd50Tb-41" edge="1">
          <mxGeometry relative="1" as="geometry">
            <Array as="points">
              <mxPoint x="103" y="170" />
            </Array>
          </mxGeometry>
        </mxCell>
        <mxCell id="2Wf-NHqIdN6HAQU8RHkt-6" value="&lt;div&gt;&lt;b&gt;Dissolution data &lt;br&gt;&lt;/b&gt;&lt;/div&gt;&lt;div&gt;&lt;b&gt;of reference formulations&lt;/b&gt;&lt;/div&gt;" style="text;html=1;" parent="1" vertex="1">
          <mxGeometry x="60" y="97.5" width="170" height="55" as="geometry" />
        </mxCell>
        <mxCell id="gM90bsnOBTq26xYd50Tb-36" style="edgeStyle=orthogonalEdgeStyle;rounded=0;orthogonalLoop=1;jettySize=auto;html=1;exitX=0.5;exitY=1;exitDx=0;exitDy=0;entryX=0.5;entryY=0;entryDx=0;entryDy=0;" parent="1" source="2Wf-NHqIdN6HAQU8RHkt-13" target="2Wf-NHqIdN6HAQU8RHkt-16" edge="1">
          <mxGeometry relative="1" as="geometry">
            <Array as="points">
              <mxPoint x="499" y="255" />
              <mxPoint x="360" y="255" />
              <mxPoint x="360" y="323" />
            </Array>
          </mxGeometry>
        </mxCell>
        <mxCell id="2Wf-NHqIdN6HAQU8RHkt-12" value="&lt;div&gt;&lt;b&gt;Updated knowledge of&lt;/b&gt;&lt;b&gt; &lt;br&gt;&lt;/b&gt;&lt;/div&gt;&lt;div&gt;&lt;b&gt;- Formulation-specific release properties&lt;/b&gt;&lt;/div&gt;&lt;div&gt;&lt;b&gt;&lt;br&gt;&lt;/b&gt;&lt;/div&gt;" style="text;html=1;rounded=1;glass=1;" parent="1" vertex="1">
          <mxGeometry x="381" y="191" width="253" height="46" as="geometry" />
        </mxCell>
        <mxCell id="gM90bsnOBTq26xYd50Tb-55" style="edgeStyle=orthogonalEdgeStyle;rounded=0;orthogonalLoop=1;jettySize=auto;html=1;exitX=1;exitY=0.5;exitDx=0;exitDy=0;entryX=0.5;entryY=0;entryDx=0;entryDy=0;" parent="1" source="2Wf-NHqIdN6HAQU8RHkt-16" target="2Wf-NHqIdN6HAQU8RHkt-29" edge="1">
          <mxGeometry relative="1" as="geometry" />
        </mxCell>
        <mxCell id="2Wf-NHqIdN6HAQU8RHkt-16" value="" style="triangle;whiteSpace=wrap;html=1;rotation=90;rounded=1;shadow=1;" parent="1" vertex="1">
          <mxGeometry x="272" y="283" width="48" height="80" as="geometry" />
        </mxCell>
        <mxCell id="2Wf-NHqIdN6HAQU8RHkt-19" value="&lt;div style=&quot;font-size: 14px&quot; align=&quot;left&quot;&gt;&lt;font style=&quot;font-size: 14px&quot;&gt;&lt;u&gt;&lt;b&gt;1&lt;sup&gt;st&lt;/sup&gt; stage calibration (&lt;i&gt;in-vitro&lt;/i&gt;)&lt;br&gt;&lt;/b&gt;&lt;/u&gt;&lt;/font&gt;&lt;/div&gt;" style="text;html=1;strokeColor=none;fillColor=none;align=left;verticalAlign=middle;whiteSpace=wrap;rounded=0;shadow=1;" parent="1" vertex="1">
          <mxGeometry x="55" y="45" width="245" height="20" as="geometry" />
        </mxCell>
        <mxCell id="2Wf-NHqIdN6HAQU8RHkt-20" value="&lt;div style=&quot;font-size: 14px&quot; align=&quot;left&quot;&gt;&lt;b&gt;&lt;font style=&quot;font-size: 14px&quot;&gt;&lt;u&gt;2&lt;sup&gt;nd&lt;/sup&gt; stage calibration &lt;/u&gt;&lt;/font&gt;&lt;font style=&quot;font-size: 14px&quot;&gt;&lt;u&gt;&lt;font style=&quot;font-size: 14px&quot;&gt;&lt;u&gt;(&lt;i&gt;in-vivo&lt;/i&gt;)&lt;/u&gt;&lt;/font&gt;&lt;/u&gt;&lt;/font&gt;&lt;/b&gt;&lt;/div&gt;" style="text;html=1;strokeColor=none;fillColor=none;align=left;verticalAlign=middle;whiteSpace=wrap;rounded=0;shadow=1;" parent="1" vertex="1">
          <mxGeometry x="55" y="190" width="225" height="20" as="geometry" />
        </mxCell>
        <mxCell id="2Wf-NHqIdN6HAQU8RHkt-24" value="&lt;b&gt;&lt;font face=&quot;Times New Roman&quot;&gt;&lt;i&gt;&lt;font style=&quot;font-size: 18px&quot;&gt;f&lt;/font&gt;&lt;/i&gt;&lt;/font&gt;&lt;/b&gt;" style="text;html=1;strokeColor=none;fillColor=none;align=center;verticalAlign=middle;whiteSpace=wrap;rounded=0;shadow=1;" parent="1" vertex="1">
          <mxGeometry x="276" y="305" width="40" height="20" as="geometry" />
        </mxCell>
        <mxCell id="gM90bsnOBTq26xYd50Tb-56" style="edgeStyle=orthogonalEdgeStyle;rounded=0;orthogonalLoop=1;jettySize=auto;html=1;exitX=0.5;exitY=1;exitDx=0;exitDy=0;entryX=0;entryY=0.5;entryDx=0;entryDy=0;" parent="1" source="2Wf-NHqIdN6HAQU8RHkt-29" target="2Wf-NHqIdN6HAQU8RHkt-31" edge="1">
          <mxGeometry relative="1" as="geometry" />
        </mxCell>
        <mxCell id="2Wf-NHqIdN6HAQU8RHkt-29" value="" style="rounded=1;whiteSpace=wrap;html=1;absoluteArcSize=1;arcSize=14;strokeWidth=1;align=left;shadow=1;strokeColor=#000000;glass=0;" parent="1" vertex="1">
          <mxGeometry x="156" y="372" width="280" height="40" as="geometry" />
        </mxCell>
        <mxCell id="gM90bsnOBTq26xYd50Tb-30" style="edgeStyle=orthogonalEdgeStyle;rounded=0;orthogonalLoop=1;jettySize=auto;html=1;exitX=1;exitY=0.5;exitDx=0;exitDy=0;entryX=0;entryY=0.5;entryDx=0;entryDy=0;entryPerimeter=0;" parent="1" source="2Wf-NHqIdN6HAQU8RHkt-31" target="2Wf-NHqIdN6HAQU8RHkt-38" edge="1">
          <mxGeometry relative="1" as="geometry">
            <mxPoint x="295" y="466" as="sourcePoint" />
            <Array as="points">
              <mxPoint x="295" y="503" />
              <mxPoint x="48" y="503" />
              <mxPoint x="48" y="633" />
            </Array>
          </mxGeometry>
        </mxCell>
        <mxCell id="2Wf-NHqIdN6HAQU8RHkt-31" value="" style="triangle;whiteSpace=wrap;html=1;rotation=90;rounded=1;shadow=1;" parent="1" vertex="1">
          <mxGeometry x="273.5" y="430.5" width="45" height="80" as="geometry" />
        </mxCell>
        <mxCell id="2Wf-NHqIdN6HAQU8RHkt-32" value="&lt;b&gt;&lt;font face=&quot;Times New Roman&quot;&gt;&lt;i&gt;&lt;font style=&quot;font-size: 18px&quot;&gt;f&lt;/font&gt;&lt;/i&gt;&lt;/font&gt;&lt;/b&gt;" style="text;html=1;strokeColor=none;fillColor=none;align=center;verticalAlign=middle;whiteSpace=wrap;rounded=0;shadow=1;" parent="1" vertex="1">
          <mxGeometry x="275" y="453" width="40" height="20" as="geometry" />
        </mxCell>
        <mxCell id="2Wf-NHqIdN6HAQU8RHkt-33" value="&lt;font color=&quot;#666666&quot;&gt;&lt;b&gt;Bayesian analysis&lt;/b&gt;&lt;/font&gt;" style="text;html=1;strokeColor=none;fillColor=none;align=center;verticalAlign=middle;whiteSpace=wrap;rounded=0;shadow=1;" parent="1" vertex="1">
          <mxGeometry x="276" y="115" width="40" height="20" as="geometry" />
        </mxCell>
        <mxCell id="2Wf-NHqIdN6HAQU8RHkt-34" value="&lt;font color=&quot;#666666&quot;&gt;&lt;b&gt;Bayesian analysis&lt;/b&gt;&lt;/font&gt;" style="text;html=1;strokeColor=none;fillColor=none;align=center;verticalAlign=middle;whiteSpace=wrap;rounded=0;shadow=1;" parent="1" vertex="1">
          <mxGeometry x="275.12" y="271.5" width="40" height="20" as="geometry" />
        </mxCell>
        <mxCell id="2Wf-NHqIdN6HAQU8RHkt-35" value="&lt;div&gt;&lt;font color=&quot;#666666&quot;&gt;&lt;b&gt;Monte Carlo population simulation&lt;br&gt;&lt;/b&gt;&lt;/font&gt;&lt;/div&gt;" style="text;html=1;strokeColor=none;fillColor=none;align=center;verticalAlign=middle;whiteSpace=wrap;rounded=0;shadow=1;" parent="1" vertex="1">
          <mxGeometry x="85" y="478" width="195" height="25" as="geometry" />
        </mxCell>
        <mxCell id="2Wf-NHqIdN6HAQU8RHkt-37" value="&lt;font style=&quot;font-size: 18px&quot; color=&quot;#666666&quot;&gt;&lt;u&gt;&lt;b&gt;Application&lt;/b&gt;&lt;/u&gt;&lt;/font&gt;" style="text;html=1;strokeColor=none;fillColor=none;align=left;verticalAlign=middle;whiteSpace=wrap;rounded=0;shadow=1;" parent="1" vertex="1">
          <mxGeometry x="55" y="440" width="100" height="20" as="geometry" />
        </mxCell>
        <mxCell id="2Wf-NHqIdN6HAQU8RHkt-38" value="" style="strokeWidth=2;html=1;shape=mxgraph.flowchart.multi-document;whiteSpace=wrap;fillColor=#f5f5f5;strokeColor=#666666;fontColor=#333333;shadow=0;" parent="1" vertex="1">
          <mxGeometry x="68" y="592.5" width="180" height="80" as="geometry" />
        </mxCell>
        <mxCell id="2Wf-NHqIdN6HAQU8RHkt-39" value="&lt;b&gt;Generated PK data from virtual individuals&lt;/b&gt;" style="text;html=1;strokeColor=none;fillColor=none;align=left;verticalAlign=middle;whiteSpace=wrap;rounded=0;" parent="1" vertex="1">
          <mxGeometry x="75" y="622.5" width="140" height="30" as="geometry" />
        </mxCell>
        <mxCell id="2Wf-NHqIdN6HAQU8RHkt-40" value="&lt;b&gt;Crossover trials of multiple designed formulations&lt;/b&gt;" style="text;html=1;strokeColor=none;fillColor=none;align=center;verticalAlign=middle;whiteSpace=wrap;rounded=0;shadow=1;" parent="1" vertex="1">
          <mxGeometry x="103" y="510" width="160" height="36" as="geometry" />
        </mxCell>
        <mxCell id="2Wf-NHqIdN6HAQU8RHkt-52" value="" style="endArrow=none;html=1;entryX=0.5;entryY=0;entryDx=0;entryDy=0;entryPerimeter=0;exitX=0.5;exitY=1;exitDx=0;exitDy=0;endFill=0;" parent="1" source="2Wf-NHqIdN6HAQU8RHkt-40" target="2Wf-NHqIdN6HAQU8RHkt-41" edge="1">
          <mxGeometry width="50" height="50" relative="1" as="geometry">
            <mxPoint x="185" y="532" as="sourcePoint" />
            <mxPoint x="235" y="482" as="targetPoint" />
          </mxGeometry>
        </mxCell>
        <mxCell id="2Wf-NHqIdN6HAQU8RHkt-56" value="&lt;div&gt;&lt;b&gt;&lt;br&gt;&lt;/b&gt;&lt;/div&gt;&lt;div&gt;&lt;b&gt;Prior knowledge of &lt;br&gt;&lt;/b&gt;&lt;/div&gt;&lt;div&gt;&lt;b&gt;- Formulation-specific release properties&lt;br&gt;&lt;/b&gt;&lt;/div&gt;" style="text;html=1;strokeColor=none;fillColor=none;spacing=5;spacingTop=-20;whiteSpace=wrap;overflow=hidden;rounded=0;shadow=1;align=left;" parent="1" vertex="1">
          <mxGeometry x="381" y="88" width="247" height="42" as="geometry" />
        </mxCell>
        <mxCell id="2Wf-NHqIdN6HAQU8RHkt-57" value="&lt;div&gt;&lt;b&gt;&lt;br&gt;&lt;/b&gt;&lt;/div&gt;&lt;div&gt;&lt;b&gt;Posterior of all calibrated parameters&lt;br&gt;&lt;/b&gt;&lt;/div&gt;" style="text;html=1;strokeColor=none;fillColor=none;spacing=5;spacingTop=-20;whiteSpace=wrap;overflow=hidden;rounded=0;shadow=1;align=center;" parent="1" vertex="1">
          <mxGeometry x="181.38" y="381" width="229.25" height="27" as="geometry" />
        </mxCell>
        <mxCell id="GwaAnzs3gER_81I0V8Wh-2" value="" style="endArrow=none;html=1;exitX=0.5;exitY=1;exitDx=0;exitDy=0;endFill=0;" parent="1" source="2Wf-NHqIdN6HAQU8RHkt-40" edge="1">
          <mxGeometry width="50" height="50" relative="1" as="geometry">
            <mxPoint x="170" y="542" as="sourcePoint" />
            <mxPoint x="149" y="605" as="targetPoint" />
          </mxGeometry>
        </mxCell>
        <mxCell id="GwaAnzs3gER_81I0V8Wh-3" value="" style="endArrow=none;html=1;entryX=0.481;entryY=0.06;entryDx=0;entryDy=0;entryPerimeter=0;exitX=0.5;exitY=1;exitDx=0;exitDy=0;endFill=0;" parent="1" source="2Wf-NHqIdN6HAQU8RHkt-40" target="2Wf-NHqIdN6HAQU8RHkt-41" edge="1">
          <mxGeometry width="50" height="50" relative="1" as="geometry">
            <mxPoint x="188.71" y="535" as="sourcePoint" />
            <mxPoint x="188.71" y="572.5" as="targetPoint" />
          </mxGeometry>
        </mxCell>
        <mxCell id="GwaAnzs3gER_81I0V8Wh-4" value="" style="endArrow=none;html=1;entryX=0.439;entryY=0.148;entryDx=0;entryDy=0;entryPerimeter=0;exitX=0.5;exitY=1;exitDx=0;exitDy=0;endFill=0;" parent="1" source="2Wf-NHqIdN6HAQU8RHkt-40" target="2Wf-NHqIdN6HAQU8RHkt-41" edge="1">
          <mxGeometry width="50" height="50" relative="1" as="geometry">
            <mxPoint x="190.00000000000003" y="536" as="sourcePoint" />
            <mxPoint x="183.8100000000001" y="580.26" as="targetPoint" />
          </mxGeometry>
        </mxCell>
        <mxCell id="GwaAnzs3gER_81I0V8Wh-5" value="" style="endArrow=none;html=1;entryX=0.559;entryY=-0.019;entryDx=0;entryDy=0;entryPerimeter=0;exitX=0.5;exitY=1;exitDx=0;exitDy=0;endFill=0;" parent="1" source="2Wf-NHqIdN6HAQU8RHkt-40" target="2Wf-NHqIdN6HAQU8RHkt-38" edge="1">
          <mxGeometry width="50" height="50" relative="1" as="geometry">
            <mxPoint x="199" y="546" as="sourcePoint" />
            <mxPoint x="188.01999999999998" y="595.34" as="targetPoint" />
          </mxGeometry>
        </mxCell>
        <mxCell id="GwaAnzs3gER_81I0V8Wh-6" value="" style="endArrow=none;html=1;entryX=0.559;entryY=-0.019;entryDx=0;entryDy=0;entryPerimeter=0;endFill=0;exitX=0.5;exitY=1;exitDx=0;exitDy=0;" parent="1" source="2Wf-NHqIdN6HAQU8RHkt-40" edge="1">
          <mxGeometry width="50" height="50" relative="1" as="geometry">
            <mxPoint x="190" y="545" as="sourcePoint" />
            <mxPoint x="160" y="599.98" as="targetPoint" />
          </mxGeometry>
        </mxCell>
        <mxCell id="GwaAnzs3gER_81I0V8Wh-7" value="" style="edgeStyle=orthogonalEdgeStyle;rounded=0;orthogonalLoop=1;jettySize=auto;html=1;entryX=0;entryY=0.5;entryDx=0;entryDy=0;exitX=0.944;exitY=0.79;exitDx=0;exitDy=0;exitPerimeter=0;endArrow=none;endFill=0;" parent="1" source="2Wf-NHqIdN6HAQU8RHkt-41" target="2Wf-NHqIdN6HAQU8RHkt-42" edge="1">
          <mxGeometry relative="1" as="geometry">
            <mxPoint x="271.08000000000004" y="623.66" as="sourcePoint" />
            <mxPoint x="350.0000000000001" y="520.5000000000001" as="targetPoint" />
            <Array as="points">
              <mxPoint x="330" y="637" />
              <mxPoint x="330" y="509" />
              <mxPoint x="355" y="509" />
            </Array>
          </mxGeometry>
        </mxCell>
        <mxCell id="GwaAnzs3gER_81I0V8Wh-8" value="" style="edgeStyle=orthogonalEdgeStyle;rounded=0;orthogonalLoop=1;jettySize=auto;html=1;entryX=0;entryY=0.5;entryDx=0;entryDy=0;exitX=0.889;exitY=0.873;exitDx=0;exitDy=0;exitPerimeter=0;endArrow=none;endFill=0;" parent="1" source="2Wf-NHqIdN6HAQU8RHkt-41" target="2Wf-NHqIdN6HAQU8RHkt-42" edge="1">
          <mxGeometry relative="1" as="geometry">
            <mxPoint x="258.0799999999999" y="632.66" as="sourcePoint" />
            <mxPoint x="350.0000000000001" y="519.5000000000001" as="targetPoint" />
            <Array as="points">
              <mxPoint x="320" y="643" />
              <mxPoint x="320" y="509" />
              <mxPoint x="355" y="509" />
            </Array>
          </mxGeometry>
        </mxCell>
        <mxCell id="GwaAnzs3gER_81I0V8Wh-9" value="" style="edgeStyle=orthogonalEdgeStyle;rounded=0;orthogonalLoop=1;jettySize=auto;html=1;entryX=0;entryY=0.5;entryDx=0;entryDy=0;exitX=1.002;exitY=0.723;exitDx=0;exitDy=0;exitPerimeter=0;endArrow=none;endFill=0;" parent="1" source="2Wf-NHqIdN6HAQU8RHkt-38" target="2Wf-NHqIdN6HAQU8RHkt-42" edge="1">
          <mxGeometry relative="1" as="geometry">
            <mxPoint x="259.08000000000004" y="632.66" as="sourcePoint" />
            <mxPoint x="351.0000000000001" y="519.5000000000001" as="targetPoint" />
            <Array as="points">
              <mxPoint x="310" y="650" />
              <mxPoint x="310" y="509" />
              <mxPoint x="355" y="509" />
            </Array>
          </mxGeometry>
        </mxCell>
        <mxCell id="GwaAnzs3gER_81I0V8Wh-10" value="" style="edgeStyle=orthogonalEdgeStyle;rounded=0;orthogonalLoop=1;jettySize=auto;html=1;entryX=0;entryY=0.5;entryDx=0;entryDy=0;exitX=0.943;exitY=0.804;exitDx=0;exitDy=0;exitPerimeter=0;endArrow=classic;endFill=1;startArrow=none;startFill=0;" parent="1" source="2Wf-NHqIdN6HAQU8RHkt-38" target="2Wf-NHqIdN6HAQU8RHkt-42" edge="1">
          <mxGeometry relative="1" as="geometry">
            <mxPoint x="258.53999999999996" y="649.3000000000001" as="sourcePoint" />
            <mxPoint x="361" y="529.5000000000001" as="targetPoint" />
            <Array as="points">
              <mxPoint x="269" y="657" />
              <mxPoint x="300" y="657" />
              <mxPoint x="300" y="510" />
            </Array>
          </mxGeometry>
        </mxCell>
        <mxCell id="GwaAnzs3gER_81I0V8Wh-11" value="" style="edgeStyle=orthogonalEdgeStyle;rounded=0;orthogonalLoop=1;jettySize=auto;html=1;entryX=0;entryY=0.5;entryDx=0;entryDy=0;endArrow=none;endFill=0;exitX=0.884;exitY=0.877;exitDx=0;exitDy=0;exitPerimeter=0;" parent="1" source="2Wf-NHqIdN6HAQU8RHkt-38" edge="1">
          <mxGeometry relative="1" as="geometry">
            <mxPoint x="227.95999999999995" y="662.12" as="sourcePoint" />
            <mxPoint x="355" y="508.5" as="targetPoint" />
            <Array as="points">
              <mxPoint x="260" y="663" />
              <mxPoint x="290" y="663" />
              <mxPoint x="290" y="508" />
            </Array>
          </mxGeometry>
        </mxCell>
        <mxCell id="2Wf-NHqIdN6HAQU8RHkt-58" style="edgeStyle=orthogonalEdgeStyle;rounded=0;orthogonalLoop=1;jettySize=auto;html=1;exitX=0.5;exitY=1;exitDx=0;exitDy=0;entryX=0.5;entryY=0;entryDx=0;entryDy=0;" parent="1" source="2Wf-NHqIdN6HAQU8RHkt-42" target="2Wf-NHqIdN6HAQU8RHkt-46" edge="1">
          <mxGeometry relative="1" as="geometry" />
        </mxCell>
        <mxCell id="2Wf-NHqIdN6HAQU8RHkt-42" value="" style="rounded=1;whiteSpace=wrap;html=1;shadow=1;align=left;strokeColor=none;glass=1;" parent="1" vertex="1">
          <mxGeometry x="355" y="487" width="312.5" height="43" as="geometry" />
        </mxCell>
        <mxCell id="2Wf-NHqIdN6HAQU8RHkt-44" value="&lt;font size=&quot;1&quot;&gt;&lt;b style=&quot;font-size: 12px&quot;&gt;C&lt;sub&gt;max&lt;/sub&gt; &amp;amp; AUC&lt;/b&gt;&lt;/font&gt;" style="text;html=1;strokeColor=none;fillColor=none;align=left;verticalAlign=middle;whiteSpace=wrap;rounded=0;shadow=1;" parent="1" vertex="1">
          <mxGeometry x="375.5" y="498.5" width="220" height="20" as="geometry" />
        </mxCell>
        <mxCell id="2Wf-NHqIdN6HAQU8RHkt-55" style="edgeStyle=orthogonalEdgeStyle;rounded=0;orthogonalLoop=1;jettySize=auto;html=1;exitX=0.5;exitY=1;exitDx=0;exitDy=0;entryX=0.5;entryY=0;entryDx=0;entryDy=0;" parent="1" source="2Wf-NHqIdN6HAQU8RHkt-46" target="2Wf-NHqIdN6HAQU8RHkt-50" edge="1">
          <mxGeometry relative="1" as="geometry" />
        </mxCell>
        <mxCell id="2Wf-NHqIdN6HAQU8RHkt-46" value="" style="rounded=1;whiteSpace=wrap;html=1;shadow=1;align=left;strokeColor=none;glass=1;" parent="1" vertex="1">
          <mxGeometry x="355" y="557" width="312.5" height="43" as="geometry" />
        </mxCell>
        <mxCell id="2Wf-NHqIdN6HAQU8RHkt-47" value="&lt;div&gt;&lt;b&gt;Safe space no impact on PK&lt;/b&gt;&lt;br&gt;&lt;/div&gt;" style="text;html=1;strokeColor=none;fillColor=none;align=left;verticalAlign=middle;whiteSpace=wrap;rounded=0;shadow=1;" parent="1" vertex="1">
          <mxGeometry x="370" y="568.5" width="220" height="20" as="geometry" />
        </mxCell>
        <mxCell id="2Wf-NHqIdN6HAQU8RHkt-50" value="" style="rounded=1;whiteSpace=wrap;html=1;shadow=1;align=left;strokeColor=none;glass=1;" parent="1" vertex="1">
          <mxGeometry x="355" y="622" width="312.5" height="43" as="geometry" />
        </mxCell>
        <mxCell id="2Wf-NHqIdN6HAQU8RHkt-51" value="&lt;b&gt;Inform dissolution specifications&lt;/b&gt;" style="text;html=1;strokeColor=none;fillColor=none;align=left;verticalAlign=middle;whiteSpace=wrap;rounded=0;shadow=1;" parent="1" vertex="1">
          <mxGeometry x="375.5" y="633.5" width="280" height="20" as="geometry" />
        </mxCell>
        <mxCell id="gM90bsnOBTq26xYd50Tb-3" value="" style="rounded=1;whiteSpace=wrap;html=1;absoluteArcSize=1;arcSize=14;strokeWidth=2;align=left;shadow=1;strokeColor=none;" parent="1" vertex="1">
          <mxGeometry x="370" y="260" width="260" height="43" as="geometry" />
        </mxCell>
        <mxCell id="gM90bsnOBTq26xYd50Tb-49" style="edgeStyle=orthogonalEdgeStyle;rounded=0;orthogonalLoop=1;jettySize=auto;html=1;exitX=1;exitY=0.5;exitDx=0;exitDy=0;entryX=0;entryY=0.5;entryDx=0;entryDy=0;" parent="1" source="gM90bsnOBTq26xYd50Tb-41" target="2Wf-NHqIdN6HAQU8RHkt-13" edge="1">
          <mxGeometry relative="1" as="geometry" />
        </mxCell>
        <mxCell id="gM90bsnOBTq26xYd50Tb-41" value="" style="triangle;whiteSpace=wrap;html=1;rotation=90;rounded=1;shadow=1;" parent="1" vertex="1">
          <mxGeometry x="271" y="130" width="48" height="80" as="geometry" />
        </mxCell>
        <mxCell id="2Wf-NHqIdN6HAQU8RHkt-23" value="&lt;b&gt;&lt;font face=&quot;Times New Roman&quot;&gt;&lt;i&gt;&lt;font style=&quot;font-size: 18px&quot;&gt;f&lt;/font&gt;&lt;/i&gt;&lt;/font&gt;&lt;/b&gt;" style="text;html=1;strokeColor=none;fillColor=none;align=center;verticalAlign=middle;whiteSpace=wrap;rounded=0;shadow=1;" parent="1" vertex="1">
          <mxGeometry x="275" y="152.5" width="40" height="20" as="geometry" />
        </mxCell>
        <mxCell id="0zONWeiAUsk6a4Qfq9Ch-2" value="" style="shape=flexArrow;endArrow=classic;startArrow=classic;html=1;" parent="1" edge="1">
          <mxGeometry width="50" height="50" relative="1" as="geometry">
            <mxPoint x="442.5" y="392" as="sourcePoint" />
            <mxPoint x="517.5" y="392" as="targetPoint" />
          </mxGeometry>
        </mxCell>
        <mxCell id="0zONWeiAUsk6a4Qfq9Ch-3" value="" style="rounded=1;whiteSpace=wrap;html=1;absoluteArcSize=1;arcSize=14;strokeWidth=1;align=left;shadow=1;strokeColor=#666666;glass=0;fillColor=#f5f5f5;fontColor=#333333;" parent="1" vertex="1">
          <mxGeometry x="530" y="345" width="160" height="100" as="geometry" />
        </mxCell>
        <mxCell id="0zONWeiAUsk6a4Qfq9Ch-4" value="&lt;u&gt;&lt;b&gt;Validation&lt;/b&gt;&lt;/u&gt;" style="text;html=1;" parent="1" vertex="1">
          <mxGeometry x="539" y="346.5" width="101" height="30" as="geometry" />
        </mxCell>
        <mxCell id="0zONWeiAUsk6a4Qfq9Ch-5" value="" style="strokeWidth=2;html=1;shape=mxgraph.flowchart.multi-document;whiteSpace=wrap;fillColor=#f5f5f5;strokeColor=#666666;fontColor=#333333;" parent="1" vertex="1">
          <mxGeometry x="550" y="373.5" width="130" height="66.5" as="geometry" />
        </mxCell>
        <mxCell id="0zONWeiAUsk6a4Qfq9Ch-6" value="&lt;font style=&quot;font-size: 10px&quot;&gt;&lt;b&gt;Clinical PK data of individuals&lt;/b&gt;&lt;/font&gt;" style="text;html=1;strokeColor=none;fillColor=none;align=left;verticalAlign=middle;whiteSpace=wrap;rounded=0;" parent="1" vertex="1">
          <mxGeometry x="559" y="394" width="95" height="30" as="geometry" />
        </mxCell>
        <mxCell id="0zONWeiAUsk6a4Qfq9Ch-7" value="" style="rounded=1;whiteSpace=wrap;html=1;absoluteArcSize=1;arcSize=14;strokeWidth=2;shadow=1;align=left;fillColor=#ffe6cc;strokeColor=#d79b00;" parent="1" vertex="1">
          <mxGeometry x="667.5" y="126" width="162.5" height="108.5" as="geometry" />
        </mxCell>
        <mxCell id="0zONWeiAUsk6a4Qfq9Ch-13" style="edgeStyle=orthogonalEdgeStyle;rounded=0;orthogonalLoop=1;jettySize=auto;html=1;exitX=1;exitY=0.5;exitDx=0;exitDy=0;entryX=1;entryY=0.5;entryDx=0;entryDy=0;" parent="1" source="0zONWeiAUsk6a4Qfq9Ch-9" target="gM90bsnOBTq26xYd50Tb-3" edge="1">
          <mxGeometry relative="1" as="geometry">
            <Array as="points">
              <mxPoint x="744" y="282" />
              <mxPoint x="667" y="282" />
            </Array>
          </mxGeometry>
        </mxCell>
        <mxCell id="0zONWeiAUsk6a4Qfq9Ch-9" value="" style="triangle;whiteSpace=wrap;html=1;rotation=90;rounded=1;shadow=1;" parent="1" vertex="1">
          <mxGeometry x="720" y="202.5" width="48" height="80" as="geometry" />
        </mxCell>
        <mxCell id="0zONWeiAUsk6a4Qfq9Ch-10" value="&lt;b&gt;&lt;font face=&quot;Times New Roman&quot;&gt;&lt;i&gt;&lt;font style=&quot;font-size: 18px&quot;&gt;f&lt;/font&gt;&lt;/i&gt;&lt;/font&gt;&lt;/b&gt;" style="text;html=1;strokeColor=none;fillColor=none;align=center;verticalAlign=middle;whiteSpace=wrap;rounded=0;shadow=1;" parent="1" vertex="1">
          <mxGeometry x="724" y="224.5" width="40" height="20" as="geometry" />
        </mxCell>
        <mxCell id="0zONWeiAUsk6a4Qfq9Ch-11" value="" style="rounded=1;whiteSpace=wrap;html=1;absoluteArcSize=1;arcSize=14;strokeWidth=2;align=left;shadow=1;strokeColor=none;" parent="1" vertex="1">
          <mxGeometry x="680" y="135.5" width="140" height="43" as="geometry" />
        </mxCell>
        <mxCell id="gM90bsnOBTq26xYd50Tb-4" value="&lt;div&gt;&lt;b&gt;Prior knowledge of&lt;/b&gt;&lt;/div&gt;&lt;div&gt;&lt;b&gt;model parameter&lt;br&gt;&lt;/b&gt;&lt;/div&gt;" style="text;html=1;" parent="1" vertex="1">
          <mxGeometry x="690" y="137" width="130" height="42" as="geometry" />
        </mxCell>
        <mxCell id="0zONWeiAUsk6a4Qfq9Ch-14" style="edgeStyle=orthogonalEdgeStyle;rounded=0;orthogonalLoop=1;jettySize=auto;html=1;exitX=0.5;exitY=1;exitDx=0;exitDy=0;entryX=0.5;entryY=0;entryDx=0;entryDy=0;" parent="1" source="gM90bsnOBTq26xYd50Tb-3" target="2Wf-NHqIdN6HAQU8RHkt-16" edge="1">
          <mxGeometry relative="1" as="geometry">
            <Array as="points">
              <mxPoint x="500" y="323" />
            </Array>
          </mxGeometry>
        </mxCell>
        <mxCell id="0zONWeiAUsk6a4Qfq9Ch-12" value="&lt;div&gt;&lt;div&gt;&lt;b&gt;Prior knowledge of&lt;/b&gt;&lt;/div&gt;&lt;/div&gt;&lt;div&gt;&lt;b&gt;- Selected influential parameters&lt;/b&gt;&lt;/div&gt;" style="text;html=1;" parent="1" vertex="1">
          <mxGeometry x="381" y="260" width="209" height="42" as="geometry" />
        </mxCell>
        <mxCell id="0zONWeiAUsk6a4Qfq9Ch-15" value="&lt;font color=&quot;#4D4D4D&quot;&gt;&lt;b&gt;Sensitivity analysis&lt;/b&gt;&lt;/font&gt;" style="text;html=1;strokeColor=none;fillColor=none;align=center;verticalAlign=middle;whiteSpace=wrap;rounded=0;shadow=1;" parent="1" vertex="1">
          <mxGeometry x="724" y="189" width="40" height="20" as="geometry" />
        </mxCell>
        <mxCell id="0zONWeiAUsk6a4Qfq9Ch-19" style="edgeStyle=orthogonalEdgeStyle;rounded=0;orthogonalLoop=1;jettySize=auto;html=1;exitX=0.5;exitY=1;exitDx=0;exitDy=0;entryX=1;entryY=0.5;entryDx=0;entryDy=0;" parent="1" source="0zONWeiAUsk6a4Qfq9Ch-16" target="2Wf-NHqIdN6HAQU8RHkt-56" edge="1">
          <mxGeometry relative="1" as="geometry" />
        </mxCell>
        <mxCell id="0zONWeiAUsk6a4Qfq9Ch-20" style="edgeStyle=orthogonalEdgeStyle;rounded=0;orthogonalLoop=1;jettySize=auto;html=1;exitX=0.5;exitY=1;exitDx=0;exitDy=0;" parent="1" source="0zONWeiAUsk6a4Qfq9Ch-16" target="gM90bsnOBTq26xYd50Tb-4" edge="1">
          <mxGeometry relative="1" as="geometry" />
        </mxCell>
        <mxCell id="0zONWeiAUsk6a4Qfq9Ch-16" value="" style="shape=rect;rounded=1;html=1;whiteSpace=wrap;align=left;strokeColor=#b85450;strokeWidth=2;fillColor=#f8cecc;shadow=1;" parent="1" vertex="1">
          <mxGeometry x="670" y="20" width="170" height="66" as="geometry" />
        </mxCell>
        <mxCell id="0zONWeiAUsk6a4Qfq9Ch-17" value="&lt;ul style=&quot;font-size: 14px&quot;&gt;&lt;li&gt;&lt;font style=&quot;font-size: 14px&quot; face=&quot;Helvetica&quot; color=&quot;#990000&quot;&gt;&lt;b&gt;Model development&lt;/b&gt;&lt;/font&gt;&lt;/li&gt;&lt;li&gt;&lt;font style=&quot;font-size: 14px&quot; face=&quot;Helvetica&quot; color=&quot;#990000&quot;&gt;&lt;b&gt;Parameter search&lt;/b&gt;&lt;/font&gt;&lt;/li&gt;&lt;/ul&gt;" style="text;html=1;strokeColor=none;fillColor=none;align=left;verticalAlign=middle;whiteSpace=wrap;rounded=0;" parent="1" vertex="1">
          <mxGeometry x="645" y="45" width="210" height="20" as="geometry" />
        </mxCell>
      </root>
    </mxGraphModel>
  </diagram>
</mxfile>
